<svg width="112" height="110" viewBox="0 0 112 110" fill="none" xmlns="http://www.w3.org/2000/svg">
<path d="M111.998 54.8538C111.998 58.9829 107.396 62.5416 106.514 66.3991C105.613 70.3925 108.196 75.5947 106.46 79.194C104.725 82.7935 99.0037 84.0635 96.5024 87.2079C94.0011 90.3522 94.0688 96.1861 90.9168 98.7125C87.7647 101.239 82.1046 99.8534 78.478 101.619C74.8515 103.385 72.445 108.648 68.4591 109.558C64.6021 110.434 60.1215 106.747 56 106.747C51.8786 106.747 47.398 110.434 43.5341 109.558C39.5551 108.648 37.1147 103.358 33.5152 101.619C29.9158 99.8806 24.2218 101.225 21.0832 98.7125C17.9447 96.1996 18.0126 90.3659 15.4909 87.2079C12.9692 84.0499 7.29546 82.8546 5.53302 79.194C3.77057 75.5335 6.38714 70.3652 5.48557 66.3991C4.60435 62.5348 -0.00512695 58.9761 -0.00512695 54.8538C-0.00512695 50.7314 4.59757 47.166 5.4788 43.3084C6.38035 39.3151 3.79091 34.1129 5.52625 30.5134C7.26158 26.9141 12.9827 25.644 15.4841 22.4997C17.9854 19.3552 17.9243 13.5146 21.0764 10.9951C24.2285 8.47546 29.8887 9.85412 33.5085 8.08836C37.1283 6.3226 39.5483 1.05928 43.5273 0.149236C47.3911 -0.726851 51.8718 2.96086 55.9932 2.96086C60.1147 2.96086 64.5953 -0.726851 68.4524 0.149236C72.4382 1.05928 74.8785 6.34977 78.4711 8.08836C82.0639 9.82695 87.7715 8.48225 90.9101 10.9951C94.0485 13.5078 93.9807 19.3416 96.4956 22.4997C99.0105 25.6576 104.691 26.8529 106.453 30.5134C108.216 34.174 105.606 39.3422 106.508 43.3084C107.396 47.1591 111.998 50.7178 111.998 54.8538Z" fill="#33854E"/>
<path d="M102.172 64.2012C107.337 38.6521 90.8514 13.7455 65.3502 8.57066C39.8491 3.39585 14.9892 19.9125 9.82406 45.4616C4.65897 71.0107 21.1447 95.9172 46.6457 101.092C72.1469 106.267 97.0068 89.7503 102.172 64.2012Z" fill="#F9FBFC"/>
<path d="M26.4877 48.7545V54.1008H35.105V58.7607H26.4877V64.4321H36.1867V69.381H20.3222V43.8418H36.1867V48.7545H26.4877Z" fill="#33854E"/>
<path d="M51.334 43.5889C54.579 43.5889 57.2591 44.4437 59.3745 46.1536C61.5137 47.8634 62.8959 50.1753 63.5208 53.0893H56.9947C56.514 51.9093 55.7689 50.9821 54.7593 50.3079C53.7738 49.6335 52.596 49.2963 51.2258 49.2963C49.423 49.2963 47.9688 49.9586 46.8632 51.2832C45.7574 52.6076 45.2046 54.3777 45.2046 56.5933C45.2046 58.8089 45.7574 60.5789 46.8632 61.9034C47.9688 63.2039 49.423 63.854 51.2258 63.854C52.596 63.854 53.7738 63.5169 54.7593 62.8426C55.7689 62.1683 56.514 61.2532 56.9947 60.0972H63.5208C62.8959 62.987 61.5137 65.299 59.3745 67.0329C57.2591 68.7427 54.579 69.5976 51.334 69.5976C48.8582 69.5976 46.6828 69.0558 44.808 67.9722C42.9331 66.8643 41.4788 65.323 40.4452 63.3483C39.4357 61.3736 38.9309 59.1219 38.9309 56.5933C38.9309 54.0646 39.4357 51.8129 40.4452 49.8382C41.4788 47.8634 42.9331 46.3343 44.808 45.2506C46.6828 44.1427 48.8582 43.5889 51.334 43.5889Z" fill="#33854E"/>
<path d="M79.0909 43.4443C81.4946 43.4443 83.67 44.0102 85.617 45.1421C87.588 46.2499 89.1384 47.8032 90.2681 49.8019C91.3979 51.7768 91.9627 54.0164 91.9627 56.5209C91.9627 59.0255 91.3859 61.2772 90.2321 63.276C89.1023 65.2748 87.5519 66.8401 85.5809 67.9721C83.6339 69.0798 81.4706 69.6337 79.0909 69.6337C76.7112 69.6337 74.5359 69.0798 72.5649 67.9721C70.6179 66.8401 69.0675 65.2748 67.9137 63.276C66.7839 61.2772 66.2191 59.0255 66.2191 56.5209C66.2191 54.0164 66.7839 51.7768 67.9137 49.8019C69.0675 47.8032 70.6179 46.2499 72.5649 45.1421C74.5359 44.0102 76.7112 43.4443 79.0909 43.4443ZM79.0909 49.1879C77.0718 49.1879 75.4613 49.8502 74.2594 51.1747C73.0816 52.4751 72.4927 54.2572 72.4927 56.5209C72.4927 58.7605 73.0816 60.5427 74.2594 61.8672C75.4613 63.1917 77.0718 63.8539 79.0909 63.8539C81.086 63.8539 82.6844 63.1917 83.8862 61.8672C85.0881 60.5427 85.689 58.7605 85.689 56.5209C85.689 54.2812 85.0881 52.4992 83.8862 51.1747C82.7084 49.8502 81.11 49.1879 79.0909 49.1879Z" fill="#33854E"/>
<path d="M12.7248 88.6074L15.6804 79.2353L12.7248 69.8633H99.2745L96.3258 79.2353L99.2745 88.6074H12.7248Z" fill="#009387"/>
<path d="M97.4242 71.2214L94.8959 79.2353L97.4175 87.2491H14.5758L17.0974 79.2353L14.5758 71.2214H97.4242ZM101.119 68.5049H10.8746L11.9863 72.0365L14.2301 79.2353L11.9592 86.4342L10.8475 89.9656H101.119L100.007 86.4342L97.7429 79.2353L100.007 72.0365L101.119 68.5049Z" fill="#F9FBFC"/>
<path d="M61.2535 27.0091L56 28.5168C55.9997 26.914 56.52 25.3546 57.4825 24.0742C58.4449 22.7939 59.7971 21.8621 61.3349 21.4198L66.5882 19.9121C66.5897 21.5152 66.0698 23.0752 65.1072 24.3557C64.1446 25.6363 62.7917 26.5677 61.2535 27.0091Z" fill="#009387"/>
<path d="M50.658 21.3924L45.4113 19.8848C45.4039 21.4926 45.9212 23.0587 46.8843 24.3447C47.8472 25.6308 49.2034 26.5662 50.7461 27.0089L55.9995 28.5166C56.0053 26.9082 55.4868 25.342 54.5226 24.0561C53.5583 22.7701 52.2013 21.8349 50.658 21.3924Z" fill="#009387"/>
<path d="M61.2535 33.4406L56 34.9484C55.9997 33.3456 56.52 31.7862 57.4825 30.5059C58.4449 29.2255 59.7971 28.2938 61.3349 27.8514L66.5882 26.3438C66.5897 27.9468 66.0698 29.5067 65.1072 30.7872C64.1446 32.0678 62.7917 32.9994 61.2535 33.4406Z" fill="#009387"/>
<path d="M50.6578 27.8514L45.4112 26.3301C45.4098 27.9332 45.9297 29.4931 46.8923 30.7737C47.8549 32.0543 49.2078 32.9858 50.7459 33.4271L55.9994 34.9348C55.9964 33.3335 55.4737 31.7765 54.5102 30.4988C53.5467 29.2211 52.1946 28.2919 50.6578 27.8514Z" fill="#009387"/>
<path d="M56.0005 24.2114C55.2233 23.4342 54.6066 22.5111 54.186 21.4949C53.7653 20.4788 53.5488 19.3894 53.5488 18.2893C53.5488 17.1892 53.7653 16.0998 54.186 15.0836C54.6066 14.0675 55.2233 13.1444 56.0005 12.3672C56.7777 13.1444 57.3943 14.0675 57.815 15.0836C58.2357 16.0998 58.4523 17.1892 58.4523 18.2893C58.4523 19.3894 58.2357 20.4788 57.815 21.4949C57.3943 22.5111 56.7777 23.4342 56.0005 24.2114Z" fill="#009387"/>
<path d="M29.4816 75.5762V77.4179H25.5618V79.5168H28.5896V81.2774H25.5618V85.1504H23.2504V75.5762H29.4816Z" fill="#F9FBFC"/>
<path d="M35.5753 85.1504L33.5072 81.5346H32.9802V85.1504H30.6688V75.5762H34.6157C35.3725 75.5762 36.0124 75.7071 36.535 75.9689C37.0577 76.2307 37.4496 76.5919 37.7109 77.0522C37.9722 77.5037 38.1029 78.0228 38.1029 78.6096C38.1029 79.3047 37.9092 79.896 37.5217 80.3836C37.1432 80.8711 36.589 81.2051 35.8592 81.3857L38.1299 85.1504H35.5753ZM32.9802 79.9503H34.4129C34.8724 79.9503 35.2104 79.851 35.4267 79.6523C35.6429 79.4447 35.751 79.1423 35.751 78.745C35.751 78.3658 35.6384 78.0679 35.4132 77.8512C35.1968 77.6346 34.8634 77.5262 34.4129 77.5262H32.9802V79.9503Z" fill="#F9FBFC"/>
<path d="M41.5732 75.5762V85.1504H39.2618V75.5762H41.5732Z" fill="#F9FBFC"/>
<path d="M45.4804 77.4179V79.422H48.7109V81.169H45.4804V83.2951H49.1164V85.1504H43.169V75.5762H49.1164V77.4179H45.4804Z" fill="#F9FBFC"/>
<path d="M58.9173 85.1504H56.6059L52.7402 79.2731V85.1504H50.4289V75.5762H52.7402L56.6059 81.5076V75.5762H58.9173V85.1504Z" fill="#F9FBFC"/>
<path d="M69.11 80.343C69.11 81.2819 68.9073 82.117 68.5018 82.8482C68.1053 83.5704 67.5287 84.1347 66.7717 84.541C66.0238 84.9472 65.1407 85.1504 64.1225 85.1504H60.5135V75.5762H64.1225C65.1498 75.5762 66.0373 75.7748 66.7853 76.1721C67.5332 76.5692 68.1053 77.129 68.5018 77.8512C68.9073 78.5734 69.11 79.404 69.11 80.343ZM63.9198 83.0785C64.8208 83.0785 65.5192 82.8392 66.0148 82.3607C66.5195 81.8823 66.7717 81.2096 66.7717 80.343C66.7717 79.4763 66.5195 78.8036 66.0148 78.3252C65.5192 77.8467 64.8208 77.6075 63.9198 77.6075H62.8248V83.0785H63.9198Z" fill="#F9FBFC"/>
<path d="M72.7379 83.3763H75.8197V85.1504H70.4266V75.5762H72.7379V83.3763Z" fill="#F9FBFC"/>
<path d="M85.1399 75.5762L81.8284 81.968V85.1504H79.5036V81.968L76.192 75.5762H78.8412L80.6794 79.4763L82.5177 75.5762H85.1399Z" fill="#F9FBFC"/>
</svg>
