<svg width="163" height="31" viewBox="0 0 163 31" fill="none" xmlns="http://www.w3.org/2000/svg">
<g clip-path="url(#clip0_1_841)">
<path d="M73.3856 12.7194C73.3856 9.1757 71.2209 6.91597 67.5619 6.91597H61.0681V24.891H65.4746V18.5998H67.5876C71.0921 18.5998 73.3856 16.2117 73.3856 12.7194ZM66.9692 10.6908C68.1803 10.6908 68.8759 11.5125 68.8759 12.7194C68.8759 13.9519 68.2061 14.825 66.9175 14.825H65.4746V10.6908H66.9692Z" fill="#080B1D"/>
<path d="M74.4058 18.1889C74.4058 22.2461 77.4466 25.2248 81.7501 25.2248C86.0275 25.2248 89.1714 22.1948 89.1714 18.1376C89.1714 14.0546 86.1049 11.0759 81.7501 11.0759C77.5755 11.0759 74.4058 14.106 74.4058 18.1889ZM78.7093 18.1889C78.7093 16.2117 79.9719 14.8507 81.7501 14.8507C83.5023 14.8507 84.868 16.1603 84.868 18.1376C84.868 20.0634 83.528 21.4501 81.7501 21.4501C79.9978 21.4501 78.7093 20.1405 78.7093 18.1889Z" fill="#080B1D"/>
<path d="M95.2847 25.2248C98.3769 25.2248 100.799 23.53 100.799 20.7824C100.799 15.9035 94.5631 16.8793 94.5631 15.1845C94.5631 14.7736 94.9239 14.5169 95.5423 14.5169C96.599 14.5169 97.3719 15.1588 97.7842 15.5697L100.567 13.387C99.7683 12.3085 98.2995 11.0759 95.7228 11.0759C92.7852 11.0759 90.5173 12.6423 90.5173 15.2359C90.5173 20.1405 96.7021 19.4728 96.7021 21.0136C96.7021 21.5014 96.3153 21.7582 95.4909 21.7582C94.1252 21.7582 93.2231 21.219 92.5015 20.577L90.0794 22.9138C90.8781 23.9923 92.7077 25.2248 95.2847 25.2248Z" fill="#080B1D"/>
<path d="M107.07 8.55942H102.766V11.4097H101.452V14.8763H102.766V19.6269C102.766 23.6328 104.622 25.0965 107.817 25.0965C108.899 25.0965 109.466 24.9424 109.466 24.9424V21.2703C109.183 21.296 108.977 21.296 108.745 21.296C107.868 21.296 107.07 21.0136 107.07 19.8323V14.8763H109.363V11.4097H107.07V8.55942Z" fill="#080B1D"/>
<path d="M124.143 12.7194C124.143 9.1757 121.979 6.91597 118.319 6.91597H111.826V24.891H116.232V18.5998H118.345C121.85 18.5998 124.143 16.2117 124.143 12.7194ZM117.727 10.6908C118.938 10.6908 119.634 11.5125 119.634 12.7194C119.634 13.9519 118.964 14.825 117.675 14.825H116.232V10.6908H117.727Z" fill="#080B1D"/>
<path d="M130.163 11.4098H125.859V24.891H130.163V11.4098ZM127.972 10.588C129.338 10.588 130.395 9.61224 130.395 8.27697C130.395 6.91598 129.338 5.9402 127.972 5.9402C126.606 5.9402 125.576 6.91598 125.576 8.27697C125.576 9.61224 126.606 10.588 127.972 10.588Z" fill="#080B1D"/>
<path d="M132.629 24.891H136.932V6.32538H132.629V24.891Z" fill="#080B1D"/>
<path d="M138.702 18.1889C138.702 22.2461 141.743 25.2248 146.046 25.2248C150.324 25.2248 153.468 22.1948 153.468 18.1376C153.468 14.0546 150.401 11.0759 146.046 11.0759C141.872 11.0759 138.702 14.106 138.702 18.1889ZM143.006 18.1889C143.006 16.2117 144.268 14.8507 146.046 14.8507C147.799 14.8507 149.164 16.1603 149.164 18.1376C149.164 20.0634 147.824 21.4501 146.046 21.4501C144.294 21.4501 143.006 20.1405 143.006 18.1889Z" fill="#080B1D"/>
<path d="M159.916 8.55942H155.613V11.4097H154.298V14.8763H155.613V19.6269C155.613 23.6328 157.468 25.0965 160.663 25.0965C161.745 25.0965 162.312 24.9424 162.312 24.9424V21.2703C162.029 21.296 161.823 21.296 161.591 21.296C160.715 21.296 159.916 21.0136 159.916 19.8323V14.8763H162.209V11.4097H159.916V8.55942Z" fill="#080B1D"/>
<path fill-rule="evenodd" clip-rule="evenodd" d="M1.18879 2.12159C0.72817 1.60339 1.09603 0.784225 1.78935 0.784225H45.9583C49.8275 0.784225 52.9643 3.92085 52.9643 7.79007V23.4832C52.9643 27.3523 49.8275 30.489 45.9583 30.489H24.2626C23.268 30.489 22.3209 30.0637 21.6602 29.3204L19.404 26.7822C18.9434 26.264 19.3112 25.4448 20.0046 25.4448H45.9583C47.0417 25.4448 47.92 24.5666 47.92 23.4832V7.79007C47.92 6.7067 47.0417 5.82845 45.9583 5.82845H6.04739C5.05282 5.82845 4.10572 5.40311 3.44496 4.65977L1.18879 2.12159Z" fill="#02A99B"/>
<path fill-rule="evenodd" clip-rule="evenodd" d="M20.325 0.583344L33.2427 14.6262C33.5735 14.986 34.1405 14.9886 34.4748 14.6318L45.842 2.50065L49.5227 5.94965L38.1557 18.0808C35.8159 20.5779 31.847 20.5597 29.5301 18.0411L16.6126 3.99831L20.325 0.583344Z" fill="#02A99B"/>
<path fill-rule="evenodd" clip-rule="evenodd" d="M11.0092 15.0149C10.5454 14.4974 10.9126 13.675 11.6075 13.675H19.6784C20.418 13.675 21.0176 14.2746 21.0176 15.0142V17.38C21.0176 18.1196 20.418 18.7192 19.6784 18.7192H15.2865C14.6775 18.7192 14.0973 18.4601 13.6909 18.0067L11.0092 15.0149Z" fill="#02A99B"/>
</g>
<defs>
<clipPath id="clip0_1_841">
<rect width="162.312" height="29.9984" fill="white" transform="translate(0 0.500824)"/>
</clipPath>
</defs>
</svg>
